<svg width="808" height="997" viewBox="0 0 808 997" fill="none" xmlns="http://www.w3.org/2000/svg">
<path fill-rule="evenodd" clip-rule="evenodd" d="M456.873 345.793L543.37 244.912C554.762 254.152 582.489 284.974 591.536 296.614L484.466 378.118C475.457 366.85 466.007 353.604 456.873 345.793Z" fill="#003087"/>
<path fill-rule="evenodd" clip-rule="evenodd" d="M498.363 400.607C505.29 413.064 510.121 434.143 513.202 441.071L640.872 406.35C639.832 401.781 628.411 360.706 616.385 340.244L498.363 400.607Z" fill="#0F6EEF"/>
<path fill-rule="evenodd" clip-rule="evenodd" d="M517.515 466.48L648.731 455.374C649.288 465.046 651.067 502.777 648.77 505.417L517.065 497.386C517.899 490.692 519.105 486.601 517.515 466.48Z" fill="#6A5CFF"/>
<path fill-rule="evenodd" clip-rule="evenodd" d="M435.239 330.414C423.349 321.654 410.115 315.702 397.662 311.107L440.679 184.962C446.602 183.313 491.72 205.307 504.24 215.818L435.239 330.414Z" fill="#003087"/>
<path fill-rule="evenodd" clip-rule="evenodd" d="M515.881 525.216C506.528 565.067 484.07 602.025 449.464 628.836C369.736 690.6 255.722 675.136 194.806 594.301C133.89 513.467 149.137 397.868 228.864 336.104C270.646 303.738 321.84 292.589 369.879 300.934L390.19 174.655C338.326 165.845 283.545 170.407 230.818 190.649C72.0214 251.609 -7.96589 431.549 52.1589 592.556C112.283 753.561 289.753 834.666 448.549 773.705C547.269 735.808 615.535 651.923 638.607 555.198L515.881 525.216Z" fill="#003087"/>
</svg>
