<?xml version="1.0" encoding="UTF-8"?>
<!DOCTYPE svg PUBLIC "-//W3C//DTD SVG 1.1//EN" "http://www.w3.org/Graphics/SVG/1.1/DTD/svg11.dtd">
<!-- Creator: CorelDRAW 2019 (64-Bit) -->
<svg xmlns="http://www.w3.org/2000/svg" xml:space="preserve" width="32.25mm" height="32.1mm" version="1.1" style="shape-rendering:geometricPrecision; text-rendering:geometricPrecision; image-rendering:optimizeQuality; fill-rule:evenodd; clip-rule:evenodd"
viewBox="0 0 3225 3210"
 xmlns:xlink="http://www.w3.org/1999/xlink">
 <defs>
  <style type="text/css">
   <![CDATA[
    .fil0 {fill:#003087}
    .fil1 {fill:#0F6EEF}
    .fil2 {fill:#6A5CFF}
   ]]>
  </style>
 </defs>
 <g id="Capa_x0020_1">
  <metadata id="CorelCorpID_0Corel-Layer"/>
  <g id="_1995725978448">
   <path class="fil0" d="M2421.63 1168.6l605.17 -325.31c38.7,65.44 117.74,264.76 140.65,337.41l-670.17 194.2c-23.4,-70.79 -45.35,-151.9 -75.65,-206.3z"/>
   <path class="fil1" d="M2524.03 1508.65c11.09,72.66 -3.73,182.9 -1.32,221.89l685.42 68.69c3.25,-23.88 22.34,-242.4 0.97,-362.95l-685.07 72.37z"/>
   <path class="fil2" d="M2497.5 1860.7l659.73 188.75c-14.89,47.52 -74.89,232.17 -90.89,240.62l-627.28 -281.64c16.25,-30.64 29.57,-48.08 58.44,-147.73z"/>
   <path class="fil0" d="M2344.14 1054.79c-42,-64.05 -95.67,-117.08 -148,-162.15l439.24 -526.98c31.87,3 211.73,191.98 253.62,265.61l-544.86 423.52z"/>
   <path class="fil0" d="M2382.66 2139.95c-118.11,174.3 -294.83,310.51 -512.29,375.53 -500.98,149.77 -1028.51,-134.96 -1178.28,-635.93 -149.77,-500.97 134.93,-1028.51 635.91,-1178.28 262.54,-78.48 532.34,-37.6 751.28,91.16l328.82 -569.53c-236.74,-138.05 -512.03,-217.21 -805.85,-217.21 -884.88,0 -1602.21,717.35 -1602.21,1602.24 0,884.88 717.33,1602.23 1602.21,1602.23 550.11,0 1035.49,-277.25 1323.98,-699.62l-543.57 -370.59z"/>
  </g>
 </g>
</svg>
