<svg width="154" height="60" viewBox="0 0 154 60" fill="none" xmlns="http://www.w3.org/2000/svg">
<mask id="path-1-inside-1_3538_1475" fill="white">
<path fill-rule="evenodd" clip-rule="evenodd" d="M32.0594 26.6177C32.8378 27.2612 33.4173 27.8837 34.0415 28.6945L41.5469 22.8694C40.5088 21.5374 39.4814 20.4499 38.1791 19.3727L32.0594 26.6177ZM64.0558 45.4856C65.1782 45.4856 66.1193 45.2102 66.8698 44.6687C67.6249 44.1264 68.1941 43.3932 68.572 42.4766C68.9499 41.5564 69.1413 40.5371 69.1413 39.4092C69.1413 38.2965 68.9543 37.2872 68.5763 36.3862C68.2045 35.4899 67.6408 34.7762 66.8857 34.2446C66.1357 33.7172 65.1897 33.4514 64.0558 33.4514C62.9559 33.4514 62.0308 33.7031 61.281 34.2055C60.537 34.7027 59.9732 35.3972 59.5903 36.2882C59.2122 37.1794 59.0209 38.2179 59.0209 39.4092C59.0209 40.6017 59.2183 41.6544 59.6006 42.5703C59.984 43.4816 60.553 44.1953 61.3081 44.7122C62.0634 45.2244 62.9777 45.4856 64.0558 45.4856ZM64.4881 47.8047C63.3556 47.8047 62.4414 47.6326 61.7459 47.2777C61.0513 46.9286 60.5199 46.5295 60.1428 46.0808C59.7707 45.6333 59.4797 45.2641 59.2781 44.9637H58.9605V47.309C58.9605 47.3921 58.8927 47.4602 58.8085 47.4602H56.3219C56.2371 47.4602 56.169 47.3921 56.169 47.309V26.1185C56.169 26.0346 56.2371 25.9674 56.3219 25.9674H58.9015C58.9856 25.9674 59.0535 26.0346 59.0535 26.1185V33.9145H59.2781C59.4797 33.6243 59.7647 33.265 60.132 32.8269C60.4926 32.388 61.018 31.994 61.7026 31.6499C62.3869 31.3046 63.3121 31.1323 64.4723 31.1323C65.972 31.1323 67.2909 31.4676 68.4291 32.1416C69.5682 32.812 70.4601 33.7713 71.1056 35.0174C71.752 36.2633 72.0742 37.7348 72.0742 39.4386C72.0742 41.1529 71.7566 42.6301 71.1108 43.88C70.4707 45.1307 69.584 46.1012 68.4458 46.7802C67.3073 47.4649 65.9883 47.8047 64.4881 47.8047ZM82.3535 47.6621C81.1487 47.6621 80.0877 47.4402 79.1737 46.9918C78.26 46.5442 77.5479 45.8702 77.0391 44.963C76.5297 44.0621 76.2779 42.9299 76.2779 41.5758V31.4851C76.2779 31.402 76.3463 31.3347 76.4299 31.3347H79.0105C79.0944 31.3347 79.1622 31.402 79.1622 31.4851V41.3587C79.1622 42.6004 79.5299 43.5703 80.2576 44.2741C80.9795 44.9736 81.9705 45.3226 83.2184 45.3226C84.077 45.3226 84.8436 45.1555 85.5223 44.8217C86.201 44.481 86.7375 43.9889 87.1314 43.3432C87.5315 42.694 87.7278 41.9108 87.7278 40.9956V31.4851C87.7278 31.402 87.7966 31.3347 87.8803 31.3347H90.4768C90.5609 31.3347 90.6288 31.402 90.6288 31.4851V47.3093C90.6288 47.3932 90.5609 47.4598 90.4768 47.4598H87.9902C87.9061 47.4598 87.8382 47.3932 87.8382 47.3093V44.2567H87.9337C87.4035 45.3969 86.7123 46.2217 85.8562 46.7363C84.8381 47.3511 83.6673 47.6621 82.3535 47.6621ZM95.6971 47.3115V31.4831C95.6971 31.4008 95.7643 31.3348 95.8468 31.3348H98.4318C98.5151 31.3348 98.5815 31.4008 98.5815 31.4831V47.3115C98.5815 47.3934 98.5151 47.46 98.4318 47.46H95.8468C95.7643 47.46 95.6971 47.3934 95.6971 47.3115ZM106.535 26.1149V47.3129C106.535 47.3942 106.468 47.4602 106.386 47.4602H103.799C103.717 47.4602 103.65 47.3942 103.65 47.3129V26.1149C103.65 26.0338 103.717 25.9673 103.799 25.9673H106.386C106.468 25.9673 106.535 26.0338 106.535 26.1149ZM118.757 45.4856C119.846 45.4856 120.766 45.2244 121.51 44.7122C122.26 44.1953 122.829 43.4816 123.213 42.5703C123.595 41.6544 123.792 40.6017 123.792 39.4092C123.792 38.2179 123.6 37.1794 123.218 36.2882C122.84 35.3972 122.276 34.7027 121.526 34.2055C120.782 33.7031 119.857 33.4514 118.757 33.4514C117.624 33.4514 116.676 33.7172 115.922 34.2446C115.172 34.7762 114.609 35.4899 114.231 36.3862C113.859 37.2872 113.672 38.2965 113.672 39.4092C113.672 40.5371 113.863 41.5564 114.241 42.4766C114.618 43.3932 115.188 44.1264 115.949 44.6687C116.71 45.2102 117.64 45.4856 118.757 45.4856ZM118.319 47.8047C116.835 47.8047 115.522 47.4649 114.378 46.7802C113.234 46.1012 112.343 45.1307 111.696 43.88C111.056 42.6301 110.738 41.1529 110.738 39.4386C110.738 37.7348 111.061 36.2633 111.708 35.0174C112.353 33.7713 113.251 32.812 114.394 32.1416C115.538 31.4676 116.852 31.1323 118.335 31.1323C119.501 31.1323 120.427 31.3046 121.111 31.6499C121.795 31.994 122.32 32.388 122.693 32.8269C123.059 33.265 123.339 33.6243 123.535 33.9145H123.76V26.12C123.76 26.0362 123.829 25.9674 123.914 25.9674H126.489C126.575 25.9674 126.644 26.0362 126.644 26.12V47.3075C126.644 47.3916 126.575 47.4602 126.489 47.4602H124.007C123.922 47.4602 123.852 47.3916 123.852 47.3075V44.9637H123.535C123.339 45.2641 123.054 45.6333 122.676 46.0808C122.293 46.5295 121.762 46.9286 121.072 47.2777C120.382 47.6326 119.464 47.8047 118.319 47.8047ZM131.712 47.3132V31.4816C131.712 31.4 131.778 31.3348 131.86 31.3348H134.448C134.531 31.3348 134.596 31.4 134.596 31.4816V47.3132C134.596 47.394 134.531 47.46 134.448 47.46H131.86C131.778 47.46 131.712 47.394 131.712 47.3132ZM142.549 37.7944V47.3109C142.549 47.3934 142.482 47.46 142.4 47.46H139.816C139.732 47.46 139.665 47.3934 139.665 47.3109V31.4831C139.665 31.4008 139.732 31.3348 139.816 31.3348H142.29C142.373 31.3348 142.44 31.4008 142.441 31.4823L142.453 34.3122L142.452 34.3118C142.956 33.3019 143.602 32.5538 144.389 32.068C145.396 31.4427 146.583 31.1327 147.941 31.1327C149.145 31.1327 150.207 31.3542 151.116 31.8021C152.024 32.2499 152.73 32.92 153.24 33.821C153.748 34.7219 154 35.855 154 37.2187V47.3109C154 47.3934 153.933 47.46 153.85 47.46H151.266C151.183 47.46 151.116 47.3934 151.116 47.3109V37.4357C151.116 36.1943 150.754 35.2243 150.032 34.5203C149.309 33.8159 148.324 33.4667 147.07 33.4667C146.217 33.4667 145.45 33.6338 144.767 33.9738C144.082 34.3084 143.541 34.8006 143.147 35.4462C142.747 36.0856 142.549 36.8739 142.549 37.7944ZM0.518856 0H9.02839C9.25697 0 9.4438 0.185832 9.4438 0.412556V18.4026C13.2917 15.5841 18.0467 13.9173 23.1942 13.9173C27.4477 13.9173 31.4328 15.0556 34.86 17.041L30.1 25.2312C26.9306 23.3796 23.0247 22.7916 19.224 23.9202C11.9716 26.074 7.85029 33.6605 10.0184 40.865C12.1864 48.0692 19.823 52.1637 27.0754 50.0098C30.2025 49.0812 32.7478 47.1424 34.4572 44.6601L42.3526 49.9507C38.1751 56.0182 31.1527 60 23.1942 60C10.3843 60 0 49.6839 0 36.9588C0 24.7875 0.103796 12.593 0.103796 0.412556C0.103796 0.185832 0.290273 0 0.518856 0ZM36.2893 40.8436L45.4541 43.4543C45.1389 44.5596 44.801 45.4308 44.3304 46.4616L35.6221 42.6101C35.9128 41.9772 36.0983 41.516 36.2893 40.8436ZM36.7682 38.5306L46.2468 39.5204C46.3404 38.6795 46.3885 37.8246 46.3885 36.9588C46.3885 36.132 46.3646 35.5071 46.279 34.7031L36.7985 35.693C36.91 36.7124 36.8841 37.5387 36.7682 38.5306ZM35.3243 30.7062C35.7482 31.4953 36.0137 32.1755 36.2814 33.0654C36.3109 33.1637 36.3398 33.2624 36.367 33.3612L45.5361 30.7493C45.0739 29.1047 44.5397 27.7347 43.7415 26.2604L35.3243 30.7062Z"/>
</mask>
<path fill-rule="evenodd" clip-rule="evenodd" d="M32.0594 26.6177C32.8378 27.2612 33.4173 27.8837 34.0415 28.6945L41.5469 22.8694C40.5088 21.5374 39.4814 20.4499 38.1791 19.3727L32.0594 26.6177ZM64.0558 45.4856C65.1782 45.4856 66.1193 45.2102 66.8698 44.6687C67.6249 44.1264 68.1941 43.3932 68.572 42.4766C68.9499 41.5564 69.1413 40.5371 69.1413 39.4092C69.1413 38.2965 68.9543 37.2872 68.5763 36.3862C68.2045 35.4899 67.6408 34.7762 66.8857 34.2446C66.1357 33.7172 65.1897 33.4514 64.0558 33.4514C62.9559 33.4514 62.0308 33.7031 61.281 34.2055C60.537 34.7027 59.9732 35.3972 59.5903 36.2882C59.2122 37.1794 59.0209 38.2179 59.0209 39.4092C59.0209 40.6017 59.2183 41.6544 59.6006 42.5703C59.984 43.4816 60.553 44.1953 61.3081 44.7122C62.0634 45.2244 62.9777 45.4856 64.0558 45.4856ZM64.4881 47.8047C63.3556 47.8047 62.4414 47.6326 61.7459 47.2777C61.0513 46.9286 60.5199 46.5295 60.1428 46.0808C59.7707 45.6333 59.4797 45.2641 59.2781 44.9637H58.9605V47.309C58.9605 47.3921 58.8927 47.4602 58.8085 47.4602H56.3219C56.2371 47.4602 56.169 47.3921 56.169 47.309V26.1185C56.169 26.0346 56.2371 25.9674 56.3219 25.9674H58.9015C58.9856 25.9674 59.0535 26.0346 59.0535 26.1185V33.9145H59.2781C59.4797 33.6243 59.7647 33.265 60.132 32.8269C60.4926 32.388 61.018 31.994 61.7026 31.6499C62.3869 31.3046 63.3121 31.1323 64.4723 31.1323C65.972 31.1323 67.2909 31.4676 68.4291 32.1416C69.5682 32.812 70.4601 33.7713 71.1056 35.0174C71.752 36.2633 72.0742 37.7348 72.0742 39.4386C72.0742 41.1529 71.7566 42.6301 71.1108 43.88C70.4707 45.1307 69.584 46.1012 68.4458 46.7802C67.3073 47.4649 65.9883 47.8047 64.4881 47.8047ZM82.3535 47.6621C81.1487 47.6621 80.0877 47.4402 79.1737 46.9918C78.26 46.5442 77.5479 45.8702 77.0391 44.963C76.5297 44.0621 76.2779 42.9299 76.2779 41.5758V31.4851C76.2779 31.402 76.3463 31.3347 76.4299 31.3347H79.0105C79.0944 31.3347 79.1622 31.402 79.1622 31.4851V41.3587C79.1622 42.6004 79.5299 43.5703 80.2576 44.2741C80.9795 44.9736 81.9705 45.3226 83.2184 45.3226C84.077 45.3226 84.8436 45.1555 85.5223 44.8217C86.201 44.481 86.7375 43.9889 87.1314 43.3432C87.5315 42.694 87.7278 41.9108 87.7278 40.9956V31.4851C87.7278 31.402 87.7966 31.3347 87.8803 31.3347H90.4768C90.5609 31.3347 90.6288 31.402 90.6288 31.4851V47.3093C90.6288 47.3932 90.5609 47.4598 90.4768 47.4598H87.9902C87.9061 47.4598 87.8382 47.3932 87.8382 47.3093V44.2567H87.9337C87.4035 45.3969 86.7123 46.2217 85.8562 46.7363C84.8381 47.3511 83.6673 47.6621 82.3535 47.6621ZM95.6971 47.3115V31.4831C95.6971 31.4008 95.7643 31.3348 95.8468 31.3348H98.4318C98.5151 31.3348 98.5815 31.4008 98.5815 31.4831V47.3115C98.5815 47.3934 98.5151 47.46 98.4318 47.46H95.8468C95.7643 47.46 95.6971 47.3934 95.6971 47.3115ZM106.535 26.1149V47.3129C106.535 47.3942 106.468 47.4602 106.386 47.4602H103.799C103.717 47.4602 103.65 47.3942 103.65 47.3129V26.1149C103.65 26.0338 103.717 25.9673 103.799 25.9673H106.386C106.468 25.9673 106.535 26.0338 106.535 26.1149ZM118.757 45.4856C119.846 45.4856 120.766 45.2244 121.51 44.7122C122.26 44.1953 122.829 43.4816 123.213 42.5703C123.595 41.6544 123.792 40.6017 123.792 39.4092C123.792 38.2179 123.6 37.1794 123.218 36.2882C122.84 35.3972 122.276 34.7027 121.526 34.2055C120.782 33.7031 119.857 33.4514 118.757 33.4514C117.624 33.4514 116.676 33.7172 115.922 34.2446C115.172 34.7762 114.609 35.4899 114.231 36.3862C113.859 37.2872 113.672 38.2965 113.672 39.4092C113.672 40.5371 113.863 41.5564 114.241 42.4766C114.618 43.3932 115.188 44.1264 115.949 44.6687C116.71 45.2102 117.64 45.4856 118.757 45.4856ZM118.319 47.8047C116.835 47.8047 115.522 47.4649 114.378 46.7802C113.234 46.1012 112.343 45.1307 111.696 43.88C111.056 42.6301 110.738 41.1529 110.738 39.4386C110.738 37.7348 111.061 36.2633 111.708 35.0174C112.353 33.7713 113.251 32.812 114.394 32.1416C115.538 31.4676 116.852 31.1323 118.335 31.1323C119.501 31.1323 120.427 31.3046 121.111 31.6499C121.795 31.994 122.32 32.388 122.693 32.8269C123.059 33.265 123.339 33.6243 123.535 33.9145H123.76V26.12C123.76 26.0362 123.829 25.9674 123.914 25.9674H126.489C126.575 25.9674 126.644 26.0362 126.644 26.12V47.3075C126.644 47.3916 126.575 47.4602 126.489 47.4602H124.007C123.922 47.4602 123.852 47.3916 123.852 47.3075V44.9637H123.535C123.339 45.2641 123.054 45.6333 122.676 46.0808C122.293 46.5295 121.762 46.9286 121.072 47.2777C120.382 47.6326 119.464 47.8047 118.319 47.8047ZM131.712 47.3132V31.4816C131.712 31.4 131.778 31.3348 131.86 31.3348H134.448C134.531 31.3348 134.596 31.4 134.596 31.4816V47.3132C134.596 47.394 134.531 47.46 134.448 47.46H131.86C131.778 47.46 131.712 47.394 131.712 47.3132ZM142.549 37.7944V47.3109C142.549 47.3934 142.482 47.46 142.4 47.46H139.816C139.732 47.46 139.665 47.3934 139.665 47.3109V31.4831C139.665 31.4008 139.732 31.3348 139.816 31.3348H142.29C142.373 31.3348 142.44 31.4008 142.441 31.4823L142.453 34.3122L142.452 34.3118C142.956 33.3019 143.602 32.5538 144.389 32.068C145.396 31.4427 146.583 31.1327 147.941 31.1327C149.145 31.1327 150.207 31.3542 151.116 31.8021C152.024 32.2499 152.73 32.92 153.24 33.821C153.748 34.7219 154 35.855 154 37.2187V47.3109C154 47.3934 153.933 47.46 153.85 47.46H151.266C151.183 47.46 151.116 47.3934 151.116 47.3109V37.4357C151.116 36.1943 150.754 35.2243 150.032 34.5203C149.309 33.8159 148.324 33.4667 147.07 33.4667C146.217 33.4667 145.45 33.6338 144.767 33.9738C144.082 34.3084 143.541 34.8006 143.147 35.4462C142.747 36.0856 142.549 36.8739 142.549 37.7944ZM0.518856 0H9.02839C9.25697 0 9.4438 0.185832 9.4438 0.412556V18.4026C13.2917 15.5841 18.0467 13.9173 23.1942 13.9173C27.4477 13.9173 31.4328 15.0556 34.86 17.041L30.1 25.2312C26.9306 23.3796 23.0247 22.7916 19.224 23.9202C11.9716 26.074 7.85029 33.6605 10.0184 40.865C12.1864 48.0692 19.823 52.1637 27.0754 50.0098C30.2025 49.0812 32.7478 47.1424 34.4572 44.6601L42.3526 49.9507C38.1751 56.0182 31.1527 60 23.1942 60C10.3843 60 0 49.6839 0 36.9588C0 24.7875 0.103796 12.593 0.103796 0.412556C0.103796 0.185832 0.290273 0 0.518856 0ZM36.2893 40.8436L45.4541 43.4543C45.1389 44.5596 44.801 45.4308 44.3304 46.4616L35.6221 42.6101C35.9128 41.9772 36.0983 41.516 36.2893 40.8436ZM36.7682 38.5306L46.2468 39.5204C46.3404 38.6795 46.3885 37.8246 46.3885 36.9588C46.3885 36.132 46.3646 35.5071 46.279 34.7031L36.7985 35.693C36.91 36.7124 36.8841 37.5387 36.7682 38.5306ZM35.3243 30.7062C35.7482 31.4953 36.0137 32.1755 36.2814 33.0654C36.3109 33.1637 36.3398 33.2624 36.367 33.3612L45.5361 30.7493C45.0739 29.1047 44.5397 27.7347 43.7415 26.2604L35.3243 30.7062Z" fill="white" stroke="url(#paint0_linear_3538_1475)" stroke-opacity="0.6" stroke-width="0.0755906" mask="url(#path-1-inside-1_3538_1475)"/>
<defs>
<linearGradient id="paint0_linear_3538_1475" x1="122.948" y1="60" x2="30.2908" y2="58.8002" gradientUnits="userSpaceOnUse">
<stop stop-color="#D4E4F4"/>
<stop offset="1" stop-color="#6A5CFF" stop-opacity="0.2"/>
</linearGradient>
</defs>
</svg>
